<?xml version="1.0" encoding="utf-8"?>
<!-- Svg Vector Icons : http://www.onlinewebfonts.com/icon -->
<!DOCTYPE svg PUBLIC "-//W3C//DTD SVG 1.1//EN" "http://www.w3.org/Graphics/SVG/1.1/DTD/svg11.dtd">
<svg version="1.1" xmlns="http://www.w3.org/2000/svg" xmlns:xlink="http://www.w3.org/1999/xlink" x="0px" y="0px" viewBox="0 0 1000 1000" enable-background="new 0 0 1000 1000" xml:space="preserve">
<metadata> Svg Vector Icons : http://www.onlinewebfonts.com/icon </metadata>
<g><path d="M183,166.9h449.8c47.6,0,90.9,19.5,122.2,50.8c31.3,31.3,50.8,74.6,50.8,122.2v19.4h-61.2v-19.4c0-30.7-12.6-58.7-32.8-78.9c-20.3-20.3-48.2-32.9-79-32.9H183c-30,0-57.4,12-77.5,31.4c-0.4,0.5-0.9,1-1.4,1.5v0c-20.3,20.3-32.9,48.2-32.9,78.9v320.3c0,30,12,57.4,31.4,77.6c0.5,0.4,1,0.9,1.5,1.4l-0.1,0.1l0,0c20.3,20.2,48.2,32.8,79,32.8h449.8c30.6,0,58.5-12.5,78.8-32.7l0.2-0.2h0l0,0c20.2-20.3,32.8-48.2,32.8-79v-19.4h61.2v19.4c0,47.5-19.4,90.7-50.8,122.1l-21.6-21.5l21.6,21.6l-0.6,0.6c-31.3,31-74.3,50.2-121.6,50.2H183c-47.5,0-90.7-19.4-122.1-50.8l21.5-21.6l-21.6,21.6c-0.6-0.6-1.2-1.2-1.7-1.9c-30.3-31.2-49-73.7-49-120.3V339.8c0-47.6,19.5-90.8,50.8-122.2v0c0.6-0.6,1.3-1.2,1.9-1.8C93.9,185.6,136.4,166.9,183,166.9L183,166.9L183,166.9z M212.1,341.6c-16.9,0-30.6,13.7-30.6,30.6c0,16.9,13.7,30.6,30.6,30.6h364c16.9,0,30.6-13.7,30.6-30.6c0-16.9-13.7-30.6-30.6-30.6H212.1L212.1,341.6L212.1,341.6z M208.8,471c-16.9,0-30.6,13.7-30.6,30.6c0,16.9,13.7,30.6,30.6,30.6h258.9c16.9,0,30.6-13.7,30.6-30.6c0-16.9-13.7-30.6-30.6-30.6H208.8L208.8,471L208.8,471z M210.5,602.1c-16.9,0-30.6,13.7-30.6,30.6s13.7,30.6,30.6,30.6h150.5c16.9,0,30.6-13.7,30.6-30.6s-13.7-30.6-30.6-30.6H210.5L210.5,602.1L210.5,602.1z M628.9,511.3l304.2-218.4L990,372L685.8,590.4L628.9,511.3L628.9,511.3z M613.4,522.6l56.6,79.4l-114.3,22.4L613.4,522.6L613.4,522.6z"/></g>
</svg>